<svg width="118" height="41" viewBox="0 0 118 41" fill="none" xmlns="http://www.w3.org/2000/svg">
<g clip-path="url(#clip0_1_3)">
<path fill-rule="evenodd" clip-rule="evenodd" d="M47.283 10.1533C47.283 10.1545 47.282 10.1554 47.281 10.1554C47.2799 10.1554 47.2789 10.1564 47.2791 10.1576L47.2799 10.5654C47.2799 10.5663 47.2806 10.567 47.2815 10.567C47.2823 10.567 47.283 10.5678 47.283 10.5687V18.6167C47.283 18.7305 47.3681 18.8225 47.4734 18.8225C47.5784 18.8225 47.6637 18.7305 47.6637 18.6167V11.2232C47.6637 10.8601 47.9357 10.5655 48.2715 10.5647L56.5207 10.5452C56.6258 10.5449 56.7109 10.4526 56.7107 10.3389C56.7105 10.2253 56.625 10.1333 56.5199 10.1336L48.2742 10.1531C47.9374 10.1539 47.6637 9.85882 47.6637 9.49457V1.7243C47.6637 1.61065 47.5784 1.51851 47.4734 1.51851C47.3681 1.51851 47.283 1.61065 47.283 1.7243V10.1533ZM56.9048 18.8225C56.7996 18.8225 56.7143 18.7305 56.7143 18.6167V1.7243C56.7143 1.61065 56.7996 1.51851 56.9048 1.51851C57.0099 1.51851 57.0951 1.61065 57.0951 1.7243V18.6167C57.0951 18.7305 57.0099 18.8225 56.9048 18.8225ZM61.4455 1.5413C61.3403 1.5413 61.2552 1.63343 61.2552 1.74709V18.8245C61.2552 18.836 61.2638 18.8453 61.2744 18.8453H61.2791C61.2872 18.8453 61.2938 18.8526 61.2938 18.8614C61.2938 18.8702 61.3006 18.8773 61.3087 18.8773L70.5348 18.8554C70.6399 18.8553 70.725 18.763 70.7247 18.6492C70.7244 18.5356 70.639 18.4436 70.5339 18.4439L62.2464 18.4635C61.9094 18.4643 61.6359 18.1692 61.6359 17.8049V1.74709C61.6359 1.63343 61.5506 1.5413 61.4455 1.5413Z" fill="white"/>
<path d="M48.2742 10.1531L48.2721 9.12417L48.2742 10.1531ZM56.5199 10.1336L56.522 11.1626L56.5199 10.1336ZM56.5207 10.5452L56.5228 11.5741L56.5207 10.5452ZM48.2715 10.5647L48.2737 11.5936L48.2715 10.5647ZM47.2799 10.5654L48.2318 10.563L47.2799 10.5654ZM47.2791 10.1576L46.3272 10.16L47.2791 10.1576ZM48.2318 10.563L48.2308 10.1553L46.3272 10.16L46.3281 10.5677L48.2318 10.563ZM46.3311 10.5687V18.6167H48.2349V10.5687H46.3311ZM48.6156 18.6167V11.2232H46.7118V18.6167H48.6156ZM56.5186 9.51625L48.2694 9.53576L48.2737 11.5936L56.5228 11.5741L56.5186 9.51625ZM48.2763 11.1821L56.522 11.1626L56.5178 9.10467L48.2721 9.12417L48.2763 11.1821ZM48.6156 9.49459V1.72432H46.7118V9.49459H48.6156ZM46.3311 1.72432V10.1533H48.2349V1.72432H46.3311ZM55.7624 1.72432V18.6167H57.6662V1.72432H55.7624ZM58.047 18.6167V1.72432H56.1433V18.6167H58.047ZM62.2071 18.8245V1.74711H60.3033V18.8245H62.2071ZM61.2791 17.8163H61.2744V19.8742H61.2791V17.8163ZM70.5327 17.8265L61.3066 17.8484L61.3108 19.9063L70.5369 19.8844L70.5327 17.8265ZM62.2485 19.4925L70.536 19.4729L70.5318 17.415L62.2443 17.4346L62.2485 19.4925ZM60.684 1.74711V17.8049H62.5878V1.74711H60.684ZM62.5878 1.74711C62.5878 1.06519 62.0764 0.512376 61.4455 0.512376V2.57027C61.025 2.57027 60.684 2.20173 60.684 1.74711H62.5878ZM62.2443 17.4346C62.4339 17.4341 62.5878 17.6001 62.5878 17.8049H60.684C60.684 18.7384 61.385 19.4944 62.2485 19.4925L62.2443 17.4346ZM71.6766 18.6469C71.6752 17.965 71.1626 17.4135 70.5318 17.415L70.536 19.4729C70.1155 19.4738 69.7738 19.1061 69.7728 18.6515L71.6766 18.6469ZM70.5369 19.8844C71.1678 19.8829 71.678 19.3289 71.6766 18.6469L69.7728 18.6515C69.7718 18.1969 70.1121 17.8276 70.5327 17.8265L70.5369 19.8844ZM60.342 18.8636C60.3432 19.4407 60.7769 19.9075 61.3108 19.9063L61.3066 17.8484C61.8241 17.8471 62.2446 18.2997 62.2457 18.8589L60.342 18.8636ZM61.2791 19.8742C60.7624 19.8742 60.3431 19.4222 60.342 18.8636L62.2457 18.8589C62.2446 18.2828 61.812 17.8163 61.2791 17.8163V19.8742ZM62.2071 1.74711C62.2071 2.20173 61.8661 2.57027 61.4455 2.57027V0.512376C60.8147 0.512376 60.3033 1.06518 60.3033 1.74711H62.2071ZM60.3033 18.8245C60.3033 19.4042 60.7381 19.8742 61.2744 19.8742V17.8163C61.7896 17.8163 62.2071 18.2678 62.2071 18.8245H60.3033ZM56.1433 18.6167C56.1433 18.1621 56.4842 17.7935 56.9048 17.7935V19.8514C57.5355 19.8514 58.047 19.2987 58.047 18.6167H56.1433ZM56.9048 2.54748C56.4842 2.54748 56.1433 2.17895 56.1433 1.72432H58.047C58.047 1.0424 57.5355 0.489594 56.9048 0.489594V2.54748ZM55.7624 18.6167C55.7624 19.2987 56.2739 19.8514 56.9048 19.8514V17.7935C57.3252 17.7935 57.6662 18.1621 57.6662 18.6167H55.7624ZM57.6662 1.72432C57.6662 2.17895 57.3252 2.54748 56.9048 2.54748V0.489594C56.2739 0.489594 55.7624 1.0424 55.7624 1.72432H57.6662ZM47.4734 0.489594C46.8425 0.489594 46.3311 1.0424 46.3311 1.72432H48.2349C48.2349 2.17895 47.8939 2.54748 47.4734 2.54748V0.489594ZM48.6156 1.72432C48.6156 1.0424 48.1042 0.489594 47.4734 0.489594V2.54748C47.0528 2.54748 46.7118 2.17895 46.7118 1.72432H48.6156ZM48.2721 9.12417C48.4618 9.12373 48.6156 9.2897 48.6156 9.49459H46.7118C46.7118 10.428 47.4128 11.1841 48.2763 11.1821L48.2721 9.12417ZM57.6625 10.3366C57.6611 9.65471 57.1487 9.10318 56.5178 9.10467L56.522 11.1626C56.1014 11.1636 55.7598 10.7959 55.7588 10.3413L57.6625 10.3366ZM56.5228 11.5741C57.1537 11.5726 57.6639 11.0186 57.6625 10.3366L55.7588 10.3413C55.7578 9.88663 56.098 9.51723 56.5186 9.51625L56.5228 11.5741ZM48.6156 11.2232C48.6156 11.4275 48.4626 11.5932 48.2737 11.5936L48.2694 9.53576C47.4087 9.5378 46.7118 10.2927 46.7118 11.2232H48.6156ZM47.4734 19.8514C48.1042 19.8514 48.6156 19.2987 48.6156 18.6167H46.7118C46.7118 18.1621 47.0528 17.7935 47.4734 17.7935V19.8514ZM46.3311 18.6167C46.3311 19.2987 46.8425 19.8514 47.4734 19.8514V17.7935C47.8939 17.7935 48.2349 18.1621 48.2349 18.6167H46.3311ZM47.2834 11.596C46.7578 11.5972 46.3311 11.1369 46.3311 10.5687H48.2349C48.2349 9.99865 47.8067 9.53687 47.2794 9.5381L47.2834 11.596ZM46.3281 10.5677C46.3292 11.1369 46.7569 11.5972 47.2834 11.596L47.2794 9.5381C47.8042 9.53687 48.2305 9.99573 48.2318 10.563L46.3281 10.5677ZM47.283 11.1844C47.8091 11.1832 48.2349 10.7218 48.2349 10.1533H46.3311C46.3311 9.58719 46.7551 9.12776 47.2789 9.12652L47.283 11.1844ZM47.2789 9.12652C46.752 9.12776 46.3259 9.59046 46.3272 10.16L48.2308 10.1553C48.2321 10.7224 47.8077 11.1832 47.283 11.1844L47.2789 9.12652Z" fill="white"/>
<path d="M22.9743 29.7762V30.1304H20.2128V29.7762H22.9743ZM20.3033 27.5737V32.4846H19.9195V27.5737H20.3033ZM23.2832 27.5737V32.4846H22.8993V27.5737H23.2832ZM32.7998 31.8303V29.9482C32.7998 29.7751 32.7665 29.6255 32.6999 29.4996C32.6333 29.3738 32.5355 29.277 32.4066 29.2096C32.2776 29.1422 32.1185 29.1085 31.9293 29.1085C31.7545 29.1085 31.5984 29.1422 31.4612 29.2096C31.3259 29.2748 31.2189 29.3636 31.1398 29.4761C31.0628 29.5862 31.0243 29.7087 31.0243 29.8437L30.6499 29.8403C30.6499 29.7031 30.6811 29.5706 30.7435 29.4424C30.806 29.3141 30.8944 29.1994 31.0087 29.0983C31.1232 28.9972 31.2595 28.9173 31.4175 28.8588C31.5776 28.7981 31.7534 28.7677 31.9448 28.7677C32.186 28.7677 32.3983 28.8116 32.5813 28.8992C32.7665 28.987 32.911 29.1185 33.015 29.2939C33.1191 29.4693 33.1711 29.6896 33.1711 29.9551V31.719C33.1711 31.845 33.1794 31.9753 33.1961 32.1103C33.2148 32.2451 33.2407 32.3564 33.274 32.4442V32.4846H32.8777C32.8527 32.4037 32.8331 32.3025 32.8185 32.181C32.806 32.0574 32.7998 31.9405 32.7998 31.8303ZM32.8872 30.3597L32.8933 30.6701H32.1601C31.9687 30.6701 31.7971 30.6891 31.6452 30.7274C31.4955 30.7634 31.3686 30.8173 31.2647 30.8892C31.1606 30.9589 31.0805 31.0434 31.0243 31.1422C30.9702 31.2412 30.9433 31.3536 30.9433 31.4795C30.9433 31.6099 30.9735 31.7291 31.0337 31.8371C31.0961 31.9449 31.1835 32.0316 31.2958 32.0968C31.4102 32.1598 31.5455 32.1912 31.7014 32.1912C31.9094 32.1912 32.0925 32.1496 32.2505 32.0664C32.4108 31.9832 32.5429 31.8742 32.6468 31.7393C32.7509 31.6043 32.8206 31.457 32.856 31.2974L33.0182 31.5301C32.9911 31.6426 32.9412 31.7583 32.8683 31.8775C32.7977 31.9944 32.7051 32.1047 32.5908 32.2081C32.4763 32.3092 32.3411 32.3924 32.1851 32.4577C32.0311 32.5206 31.8563 32.5522 31.6608 32.5522C31.4404 32.5522 31.2479 32.5071 31.0836 32.4172C30.9213 32.3273 30.7945 32.2047 30.703 32.0495C30.6136 31.8922 30.5687 31.7146 30.5687 31.5167C30.5687 31.3368 30.6041 31.1759 30.6749 31.0343C30.7456 30.8905 30.8476 30.769 30.9806 30.6701C31.1159 30.5688 31.2781 30.4925 31.4674 30.4407C31.6588 30.3868 31.8731 30.3597 32.1102 30.3597H32.8872ZM40.931 29.5367V33.8877H40.5566V28.8351H40.906L40.931 29.5367ZM43.2773 30.6262V30.697C43.2773 30.9691 43.2483 31.2188 43.19 31.4458C43.1318 31.673 43.0475 31.8696 42.9372 32.036C42.8291 32.2002 42.6949 32.3273 42.5348 32.4172C42.3746 32.5071 42.1926 32.5522 41.9888 32.5522C41.7869 32.5522 41.6069 32.5183 41.4489 32.4509C41.2909 32.3835 41.1546 32.288 41.0401 32.1642C40.9279 32.0383 40.8374 31.8922 40.7687 31.7258C40.7021 31.5571 40.6554 31.3727 40.6282 31.1726V30.2383C40.6596 30.0179 40.7104 29.8178 40.7812 29.638C40.8519 29.458 40.9423 29.3029 41.0526 29.1726C41.165 29.0421 41.2982 28.942 41.452 28.8723C41.606 28.8026 41.7817 28.7677 41.9793 28.7677C42.1853 28.7677 42.3683 28.8116 42.5285 28.8992C42.6907 28.9847 42.827 29.1095 42.9372 29.2737C43.0496 29.4356 43.1338 29.6312 43.19 29.8606C43.2483 30.0876 43.2773 30.3429 43.2773 30.6262ZM42.903 30.697V30.6262C42.903 30.4126 42.8822 30.2147 42.8405 30.0326C42.801 29.8504 42.7396 29.6919 42.6564 29.557C42.5752 29.4198 42.4713 29.313 42.3444 29.2366C42.2196 29.1601 42.0709 29.1218 41.8983 29.1218C41.7193 29.1218 41.5665 29.1545 41.4395 29.2198C41.3147 29.2827 41.2108 29.3669 41.1275 29.4726C41.0443 29.5762 40.9789 29.6896 40.931 29.8134C40.8831 29.937 40.8478 30.0585 40.8249 30.1777V31.2535C40.8644 31.4245 40.9279 31.5829 41.0153 31.7291C41.1026 31.8731 41.2191 31.9888 41.3646 32.0766C41.5124 32.1619 41.6923 32.2047 41.9045 32.2047C42.075 32.2047 42.2228 32.1665 42.3475 32.0901C42.4723 32.0136 42.5752 31.9068 42.6564 31.7695C42.7396 31.6324 42.801 31.4728 42.8405 31.2906C42.8822 31.1085 42.903 30.9107 42.903 30.697ZM50.8657 29.5367V33.8877H50.4912V28.8351H50.8407L50.8657 29.5367ZM53.2121 30.6262V30.697C53.2121 30.9691 53.1829 31.2188 53.1247 31.4458C53.0664 31.673 52.9821 31.8696 52.872 32.036C52.7638 32.2002 52.6295 32.3273 52.4694 32.4172C52.3093 32.5071 52.1272 32.5522 51.9234 32.5522C51.7216 32.5522 51.5417 32.5183 51.3837 32.4509C51.2255 32.3835 51.0892 32.288 50.9749 32.1642C50.8625 32.0383 50.772 31.8922 50.7035 31.7258C50.6369 31.5571 50.59 31.3727 50.563 31.1726V30.2383C50.5942 30.0179 50.6452 29.8178 50.7158 29.638C50.7866 29.458 50.8771 29.3029 50.9874 29.1726C51.0996 29.0421 51.2328 28.942 51.3867 28.8723C51.5407 28.8026 51.7164 28.7677 51.9141 28.7677C52.12 28.7677 52.3031 28.8116 52.4632 28.8992C52.6255 28.9847 52.7617 29.1095 52.872 29.2737C52.9842 29.4356 53.0685 29.6312 53.1247 29.8606C53.1829 30.0876 53.2121 30.3429 53.2121 30.6262ZM52.8376 30.697V30.6262C52.8376 30.4126 52.8168 30.2147 52.7752 30.0326C52.7357 29.8504 52.6744 29.6919 52.5911 29.557C52.51 29.4198 52.406 29.313 52.2791 29.2366C52.1543 29.1601 52.0055 29.1218 51.8329 29.1218C51.6541 29.1218 51.5011 29.1545 51.3742 29.2198C51.2495 29.2827 51.1454 29.3669 51.0623 29.4726C50.9791 29.5762 50.9135 29.6896 50.8657 29.8134C50.8178 29.937 50.7824 30.0585 50.7595 30.1777V31.2535C50.7991 31.4245 50.8625 31.5829 50.9499 31.7291C51.0372 31.8731 51.1537 31.9888 51.2994 32.0766C51.447 32.1619 51.627 32.2047 51.8392 32.2047C52.0098 32.2047 52.1574 32.1665 52.2823 32.0901C52.407 32.0136 52.51 31.9068 52.5911 31.7695C52.6744 31.6324 52.7357 31.4728 52.7752 31.2906C52.8168 31.1085 52.8376 30.9107 52.8376 30.697ZM61.3962 32.1203L62.4478 28.8351H62.8503L61.4212 33.0715C61.3922 33.1547 61.3547 33.2469 61.309 33.348C61.2653 33.4493 61.207 33.546 61.1343 33.6382C61.0635 33.7327 60.974 33.8091 60.8658 33.8675C60.7597 33.9283 60.6298 33.9586 60.4758 33.9586C60.4364 33.9586 60.3854 33.953 60.323 33.9418C60.2626 33.9327 60.2189 33.9237 60.1919 33.9147L60.1888 33.5741C60.2116 33.5808 60.2449 33.5864 60.2886 33.591C60.3323 33.5954 60.3625 33.5977 60.3791 33.5977C60.5143 33.5977 60.6277 33.5729 60.7193 33.5234C60.8128 33.4741 60.8908 33.3998 60.9532 33.301C61.0157 33.2042 61.0708 33.0827 61.1187 32.9367L61.3962 32.1203ZM60.4135 28.8351L61.4899 31.9686L61.5898 32.3901L61.3183 32.5555L60.0078 28.8351H60.4135ZM72.5385 32.1305V32.4846H70.1827V32.1305H72.5385ZM70.2951 27.5737V32.4846H69.9113V27.5737H70.2951ZM79.9989 28.8351V32.4846H79.6275V28.8351H79.9989ZM79.5621 27.7795C79.5621 27.7031 79.584 27.639 79.6275 27.5872C79.6733 27.5333 79.7357 27.5063 79.8148 27.5063C79.8939 27.5063 79.9562 27.5333 80.002 27.5872C80.0498 27.639 80.0738 27.7031 80.0738 27.7795C80.0738 27.8537 80.0498 27.9178 80.002 27.9717C79.9562 28.0235 79.8939 28.0493 79.8148 28.0493C79.7357 28.0493 79.6733 28.0235 79.6275 27.9717C79.584 27.9178 79.5621 27.8537 79.5621 27.7795ZM88.0489 32.4846H87.6776V28.3832C87.6776 28.1336 87.7173 27.9234 87.7962 27.7526C87.8774 27.5816 87.9918 27.4524 88.1395 27.3646C88.2893 27.277 88.4671 27.2331 88.6731 27.2331C88.7375 27.2331 88.8041 27.2377 88.8727 27.2466C88.9414 27.2533 89.008 27.2679 89.0724 27.2905L89.0443 27.6311C88.9924 27.6153 88.9393 27.6053 88.8852 27.6007C88.8332 27.5941 88.7718 27.5906 88.7012 27.5906C88.5659 27.5906 88.4494 27.6222 88.3517 27.685C88.2539 27.7458 88.179 27.8346 88.127 27.9515C88.0751 28.0684 88.0489 28.2124 88.0489 28.3832V32.4846ZM88.854 28.8351V29.1657H87.1191V28.8351H88.854ZM97.1443 32.5522C96.9238 32.5522 96.7211 32.5083 96.5359 32.4205C96.3529 32.3329 96.1928 32.2091 96.0554 32.0495C95.9202 31.89 95.8151 31.701 95.7403 31.483C95.6675 31.2625 95.631 31.022 95.631 30.7611V30.6161C95.631 30.335 95.6695 30.0809 95.7465 29.8538C95.8234 29.6267 95.9295 29.4322 96.0648 29.2704C96.1999 29.1085 96.3539 28.9847 96.5265 28.8992C96.7013 28.8116 96.8843 28.7677 97.0756 28.7677C97.29 28.7677 97.4802 28.8093 97.6467 28.8925C97.8131 28.9735 97.9525 29.0893 98.0647 29.24C98.1792 29.3883 98.2655 29.5649 98.3238 29.7695C98.3821 29.9719 98.4111 30.1956 98.4111 30.4407V30.687H95.8557V30.3429H98.0399V30.2957C98.0357 30.0911 97.9972 29.8999 97.9244 29.7223C97.8536 29.5423 97.7475 29.3962 97.6061 29.2839C97.4646 29.1713 97.2879 29.1152 97.0756 29.1152C96.9176 29.1152 96.7719 29.1511 96.6389 29.2231C96.5078 29.2951 96.3945 29.3985 96.2988 29.5334C96.2051 29.6661 96.1324 29.8246 96.0804 30.009C96.0305 30.191 96.0055 30.3934 96.0055 30.6161V30.7611C96.0055 30.9635 96.0325 31.1524 96.0865 31.3278C96.1427 31.5009 96.2218 31.6538 96.3237 31.7865C96.4278 31.9191 96.5504 32.0225 96.6919 32.0968C96.8333 32.171 96.9894 32.2081 97.1599 32.2081C97.3597 32.2081 97.5364 32.1687 97.6904 32.0901C97.8443 32.0092 97.9827 31.8821 98.1053 31.7089L98.3394 31.9045C98.2666 32.0215 98.175 32.1294 98.0647 32.2283C97.9566 32.3273 97.8266 32.4059 97.6748 32.4644C97.5229 32.5229 97.3461 32.5522 97.1443 32.5522Z" fill="white"/>
<g filter="url(#filter0_i_1_3)">
<path d="M76.0794 22.0487C76.5205 22.0487 76.88 22.4357 76.8596 22.912C76.657 27.6241 74.802 32.0992 71.6415 35.4492C68.2886 39.0033 63.7411 41 58.9993 41C54.2575 41 49.71 39.0033 46.3571 35.4492C43.1966 32.0992 41.3416 27.6241 41.139 22.912C41.1185 22.4357 41.4781 22.0487 41.9192 22.0487H58.9993H76.0794Z" stroke="white"/>
</g>
</g>
<defs>
<filter id="filter0_i_1_3" x="40.6382" y="21.5487" width="36.7222" height="23.9513" filterUnits="userSpaceOnUse" color-interpolation-filters="sRGB">
<feFlood flood-opacity="0" result="BackgroundImageFix"/>
<feBlend mode="normal" in="SourceGraphic" in2="BackgroundImageFix" result="shape"/>
<feColorMatrix in="SourceAlpha" type="matrix" values="0 0 0 0 0 0 0 0 0 0 0 0 0 0 0 0 0 0 127 0" result="hardAlpha"/>
<feOffset dy="4"/>
<feGaussianBlur stdDeviation="2"/>
<feComposite in2="hardAlpha" operator="arithmetic" k2="-1" k3="1"/>
<feColorMatrix type="matrix" values="0 0 0 0 0 0 0 0 0 0 0 0 0 0 0 0 0 0 0.25 0"/>
<feBlend mode="normal" in2="shape" result="effect1_innerShadow_1_3"/>
</filter>
<clipPath id="clip0_1_3">
<rect width="118" height="41" fill="white"/>
</clipPath>
</defs>
</svg>
