<svg width="50" height="53" viewBox="0 0 50 53" fill="none" xmlns="http://www.w3.org/2000/svg">
<path fill-rule="evenodd" clip-rule="evenodd" d="M8.74365 12.6535C8.74365 12.655 8.74246 12.6562 8.74098 12.6562C8.7395 12.6562 8.73831 12.6574 8.73831 12.6588L8.73946 13.1727C8.73946 13.1738 8.7404 13.1748 8.74155 13.1748C8.74271 13.1748 8.74365 13.1757 8.74365 13.1769V23.5931C8.74365 23.7363 8.85975 23.8524 9.00296 23.8524C9.14617 23.8524 9.26227 23.7363 9.26227 23.5931V14.0015C9.26227 13.544 9.63264 13.1728 10.0902 13.1718L21.3936 13.1465C21.5368 13.1462 21.6526 13.0299 21.6523 12.8867C21.652 12.7435 21.5357 12.6276 21.3924 12.6279L10.0939 12.6531C9.6349 12.6542 9.26227 12.2824 9.26227 11.8234V1.75943C9.26227 1.61622 9.14617 1.50012 9.00296 1.50012C8.85975 1.50012 8.74365 1.61622 8.74365 1.75943V12.6535ZM21.9165 23.8524C21.7733 23.8524 21.6572 23.7363 21.6572 23.5931V1.75943C21.6572 1.61622 21.7733 1.50012 21.9165 1.50012C22.0597 1.50012 22.1758 1.61622 22.1758 1.75943V23.5931C22.1758 23.7363 22.0597 23.8524 21.9165 23.8524ZM28.1344 1.52898C27.9912 1.52898 27.8751 1.64508 27.8751 1.78829V23.8547C27.8751 23.8694 27.887 23.8812 27.9017 23.8812H27.9137C27.9217 23.8812 27.9281 23.8877 27.9281 23.8956C27.9281 23.9036 27.9346 23.91 27.9426 23.91L40.5823 23.8818C40.7255 23.8815 40.8414 23.7651 40.841 23.6219C40.8407 23.4787 40.7244 23.3629 40.5811 23.3632L29.2254 23.3885C28.7664 23.3896 28.3938 23.0178 28.3938 22.5588V1.78829C28.3938 1.64508 28.2777 1.52898 28.1344 1.52898Z" fill="#655050"/>
<path d="M27.9426 23.91L27.9455 25.2066L27.9426 23.91ZM10.0939 12.6532L10.091 11.3566L10.0939 12.6532ZM21.3924 12.628L21.3895 11.3314L21.3924 12.628ZM21.3936 13.1466L21.3965 14.4431L21.3936 13.1466ZM10.0902 13.1718L10.0931 14.4683L10.0902 13.1718ZM10.036 13.1698L10.0348 12.656L7.44175 12.6618L7.4429 13.1756L10.036 13.1698ZM7.44709 13.1769V23.5931H10.0402V13.1769H7.44709ZM10.5588 23.5931V14.0016H7.9657V23.5931H10.5588ZM21.3907 11.85L10.0873 11.8753L10.0931 14.4683L21.3965 14.4431L21.3907 11.85ZM10.0968 13.9497L21.3953 13.9245L21.3895 11.3314L10.091 11.3566L10.0968 13.9497ZM10.5588 11.8234V1.75945H7.9657V11.8234H10.5588ZM7.44709 1.75945V12.6535H10.0402V1.75945H7.44709ZM20.3607 1.75945V23.5931H22.9537V1.75945H20.3607ZM23.4723 23.5931V1.75945H20.8793V23.5931H23.4723ZM29.1716 23.8547V1.78831H26.5786V23.8547H29.1716ZM27.9137 22.5847H27.9016V25.1778H27.9137V22.5847ZM40.5794 22.5853L27.9397 22.6135L27.9455 25.2066L40.5852 25.1784L40.5794 22.5853ZM29.2283 24.6851L40.584 24.6598L40.5782 22.0667L29.2225 22.092L29.2283 24.6851ZM27.0972 1.78831V22.5588H29.6903V1.78831H27.0972ZM29.6903 1.78831C29.6903 0.929039 28.9937 0.232464 28.1344 0.232464V2.82553C27.5616 2.82553 27.0972 2.36115 27.0972 1.78831H29.6903ZM29.2225 22.092C29.4807 22.0915 29.6903 22.3006 29.6903 22.5588H27.0972C27.0972 23.735 28.0521 24.6877 29.2283 24.6851L29.2225 22.092ZM42.1375 23.6191C42.1356 22.7598 41.4375 22.0648 40.5782 22.0667L40.584 24.6598C40.0112 24.661 39.5457 24.1977 39.5445 23.6248L42.1375 23.6191ZM40.5852 25.1784C41.4444 25.1765 42.1395 24.4783 42.1375 23.6191L39.5445 23.6248C39.5432 23.052 40.0065 22.5866 40.5794 22.5853L40.5852 25.1784ZM26.6316 23.8986C26.6332 24.6225 27.2214 25.2082 27.9455 25.2066L27.9397 22.6135C28.6478 22.6119 29.223 23.1847 29.2246 23.8927L26.6316 23.8986ZM27.9137 25.1778C27.2067 25.1778 26.6332 24.6055 26.6316 23.8986L29.2246 23.8927C29.223 23.1699 28.6365 22.5847 27.9137 22.5847V25.1778ZM29.1716 1.78831C29.1716 2.36115 28.7073 2.82553 28.1344 2.82553V0.232464C27.2752 0.232464 26.5786 0.929035 26.5786 1.78831H29.1716ZM26.5786 23.8547C26.5786 24.5854 27.1709 25.1778 27.9016 25.1778V22.5847C28.603 22.5847 29.1716 23.1533 29.1716 23.8547H26.5786ZM20.8793 23.5931C20.8793 23.0202 21.3437 22.5559 21.9165 22.5559V25.1489C22.7758 25.1489 23.4723 24.4523 23.4723 23.5931H20.8793ZM21.9165 2.79668C21.3437 2.79668 20.8793 2.3323 20.8793 1.75945H23.4723C23.4723 0.900177 22.7758 0.203606 21.9165 0.203606V2.79668ZM20.3607 23.5931C20.3607 24.4524 21.0572 25.1489 21.9165 25.1489V22.5559C22.4893 22.5559 22.9537 23.0202 22.9537 23.5931H20.3607ZM22.9537 1.75945C22.9537 2.33229 22.4894 2.79668 21.9165 2.79668V0.203606C21.0572 0.203606 20.3607 0.900181 20.3607 1.75945H22.9537ZM9.00292 0.203606C8.14365 0.203606 7.44709 0.900181 7.44709 1.75945H10.0402C10.0402 2.33229 9.57577 2.79668 9.00292 2.79668V0.203606ZM10.5588 1.75945C10.5588 0.900181 9.86219 0.203606 9.00292 0.203606V2.79668C8.43008 2.79668 7.9657 2.33229 7.9657 1.75945H10.5588ZM10.091 11.3566C10.3492 11.3561 10.5588 11.5652 10.5588 11.8234H7.9657C7.9657 12.9996 8.92058 13.9523 10.0968 13.9497L10.091 11.3566ZM22.9488 12.8838C22.9469 12.0245 22.2488 11.3295 21.3895 11.3314L21.3953 13.9245C20.8225 13.9258 20.357 13.4624 20.3558 12.8896L22.9488 12.8838ZM21.3965 14.4431C22.2557 14.4412 22.9507 13.7431 22.9488 12.8838L20.3558 12.8896C20.3545 12.3167 20.8178 11.8513 21.3907 11.85L21.3965 14.4431ZM10.5588 14.0016C10.5588 14.2589 10.3504 14.4677 10.0931 14.4683L10.0873 11.8753C8.9148 11.8779 7.9657 12.8291 7.9657 14.0016H10.5588ZM9.00292 25.1489C9.86219 25.1489 10.5588 24.4523 10.5588 23.5931H7.9657C7.9657 23.0202 8.43008 22.5559 9.00292 22.5559V25.1489ZM7.44709 23.5931C7.44709 24.4524 8.14366 25.1489 9.00292 25.1489V22.5559C9.57576 22.5559 10.0402 23.0202 10.0402 23.5931H7.44709ZM8.74448 14.4713C8.02843 14.473 7.44709 13.8929 7.44709 13.1769H10.0402C10.0402 12.4585 9.45693 11.8766 8.73857 11.8783L8.74448 14.4713ZM7.4429 13.1756C7.4445 13.8928 8.02724 14.473 8.74448 14.4713L8.73857 11.8783C9.45349 11.8766 10.0344 12.4549 10.036 13.1698L7.4429 13.1756ZM8.74396 13.9527C9.45997 13.951 10.0402 13.3702 10.0402 12.6535H7.44709C7.44709 11.9398 8.02489 11.3613 8.73795 11.3596L8.74396 13.9527ZM8.73795 11.3596C8.02047 11.3613 7.44015 11.9443 7.44175 12.6618L10.0348 12.656C10.0364 13.3705 9.45848 13.9511 8.74396 13.9527L8.73795 11.3596Z" fill="#655050"/>
<mask id="mask0_1_2" style="mask-type:alpha" maskUnits="userSpaceOnUse" x="0" y="28" width="50" height="25">
<path d="M48.1783 28.02C48.7792 28.02 49.2688 28.5075 49.2421 29.1078C48.9712 35.2047 46.4301 40.9962 42.0963 45.33C37.5054 49.9209 31.2788 52.5 24.7863 52.5C18.2938 52.5001 12.0672 49.9209 7.4763 45.33C3.14245 40.9962 0.60139 35.2047 0.330432 29.1078C0.303753 28.5075 0.793391 28.02 1.39427 28.02H24.7863H48.1783Z" fill="white"/>
</mask>
<g mask="url(#mask0_1_2)">
<path d="M48.1783 28.02C48.7792 28.02 49.2688 28.5075 49.2421 29.1078C48.9712 35.2047 46.4301 40.9962 42.0963 45.33C37.5054 49.9209 31.2788 52.5 24.7863 52.5C18.2938 52.5001 12.0672 49.9209 7.4763 45.33C3.14245 40.9962 0.60139 35.2047 0.330432 29.1078C0.303753 28.5075 0.793391 28.02 1.39427 28.02H24.7863H48.1783Z" stroke="url(#paint0_linear_1_2)" stroke-width="5.18568"/>
</g>
<defs>
<linearGradient id="paint0_linear_1_2" x1="0.306276" y1="29.788" x2="56.2703" y2="28.02" gradientUnits="userSpaceOnUse">
<stop offset="0.9999" stop-color="#655050"/>
<stop offset="1" stop-color="#FDFDFD"/>
</linearGradient>
</defs>
</svg>
